# xmcd
#
# Track frame offsets:
#	150
#	18581
#	36458
#	52302
#	71471
#	88199
#	100444
#	117752
#	131368
#	145498
#	162888
#	175231
#	192845
#	207468
#	225829
#	244121
#	255958
#	267352
#	283759
#
# Disc length: 4015 seconds
#
# Revision: 2
# Processed by: cddbd v1.5.2PL0 Copyright (c) Steve Scherf et al.
# Submitted via: audiograbber 1.83.01
#
DISCID=180fad13
DTITLE=Various Artist - CDXMAS 1022
DYEAR=2007
DGENRE=Country
TTITLE0=Martina McBride - O Come All Ye Faithful
TTITLE1=Sara Evans - I'll Be Home For Christmas
TTITLE2=Kellie Pickler - Santa Baby
TTITLE3=Carrie Underwood - Do You Hear What I Hear
TTITLE4=Keith Anderson - Please Come Home for Christmas
TTITLE5=Toby Keith - Let It Snow
TTITLE6=Toby Keith - Little Drummer Boy
TTITLE7=Carters Chord - Oh Come, Oh Come Emmanuel
TTITLE8=Taylor Swift - Christmases When You Were Mine
TTITLE9=Little Big Town - Go Tell It On The Mountain
TTITLE10=Clint Black - Milk and Cookies 
TTITLE11=Lonestar - My Christmas List
TTITLE12=Randy Travis - Nothings Gonna Bring Me Down At Christmas
TTITLE13=Diamond Rio - The Star Still Shines
TTITLE14=Bryan White/Brother Daniel White - The First Noel
TTITLE15=The Geezinslaws - Lighten Up Its Christmas
TTITLE16=The Geezinslaws - Randolf The Brown Nosed Reindeer
TTITLE17=Doug Wayne - Almost Time For Christmas
TTITLE18=Doug Wayne - That Star Still Shines
EXTD=
EXTT0=
EXTT1=
EXTT2=
EXTT3=
EXTT4=
EXTT5=
EXTT6=
EXTT7=
EXTT8=
EXTT9=
EXTT10=
EXTT11=
EXTT12=
EXTT13=
EXTT14=
EXTT15=
EXTT16=
EXTT17=
EXTT18=
PLAYORDER=
